<svg xmlns="http://www.w3.org/2000/svg" width="401" height="121" viewBox="0 0 401 121" fill="none"><path d="M58.9989 8.832C58.6444 6.08631 57.3169 3.2881 54.7431 1.58771C52.6918 0.214048 49.9993 -0.173973 47.4828 0.0668284C45.0295 0.299421 42.6915 1.23144 40.8152 2.62973C38.9687 3.99135 37.5208 5.73441 36.4317 7.61485C34.9699 10.1805 34.1249 13.0269 34.0947 15.9001C34.0624 18.6687 35.1828 21.479 37.3631 23.5045C38.8951 24.9405 40.998 25.9229 43.2378 26.1265C45.127 26.3317 47.0466 26.0066 48.8133 25.4166C50.3273 24.9197 51.6641 24.0725 52.8134 23.0825C54.4088 21.7143 55.7033 20.09 56.7305 18.3551C58.4612 15.4518 59.4923 12.1211 58.9989 8.832Z" fill="#ED1D24"></path><path d="M6.9657 64.044C6.8266 63.8924 6.68198 63.7424 6.53485 63.5952L7.8697 65.2496C7.61774 64.82 7.319 64.4139 6.9657 64.044Z" fill="#ED1D24"></path><path d="M9.06704 111.501C9.0665 111.498 9.06512 111.495 9.06512 111.491C8.97993 111.484 8.89681 111.476 8.81448 111.467C8.89873 111.48 8.98244 111.492 9.06704 111.501Z" fill="#ED1D24"></path><path d="M37.9102 71.7173L40.0331 66.4098C41.6032 62.7529 42.927 59.0189 44.2893 55.3001C45.4597 52.1506 46.8893 49.0513 47.5163 45.7699C47.7769 44.295 47.9497 42.7478 47.4393 41.2997C47.1457 40.4465 46.494 39.6639 45.5592 39.2819C44.5961 38.8906 43.5103 38.8074 42.4611 38.8331C40.0491 38.9289 37.7519 39.6951 35.5881 40.5883C29.096 43.3608 23.1549 47.0231 17.5409 50.987C13.0141 54.1443 8.69596 57.5204 4.24935 60.7625L6.53501 63.5952C6.68214 63.7424 6.82676 63.8924 6.96586 64.044C7.31916 64.4139 7.6179 64.82 7.86986 65.2496L8.24049 65.7104C10.3703 64.5152 12.1322 62.8887 14.2586 61.6907C14.4519 61.5834 14.6465 61.4805 14.8446 61.3804C16.5013 60.0538 18.4088 59.5651 19.5254 60.3061C20.5223 60.9677 20.6165 62.4289 19.9119 63.9881C19.6692 65.0986 19.3384 66.1926 18.9676 67.2762L17.0562 72.0539L12.3807 82.6119L12.3423 82.601L8.0068 94.0128L8.06604 94.0303L4.29225 103.965L3.821 105.143L3.84216 105.149C2.93237 107.492 1.89564 109.799 1.17242 112.195C0.750608 113.675 0.379961 115.199 0.536721 116.735C0.627123 117.686 0.938145 118.663 1.66771 119.398C2.11587 119.864 2.67886 120.229 3.29918 120.493C3.6502 120.706 4.22204 120.869 4.90871 120.947C5.00623 120.959 5.1049 120.968 5.20588 120.977C5.41016 120.991 5.62136 121 5.8391 121C6.42151 121 6.96296 120.941 7.41823 120.841C7.43133 120.84 7.44384 120.837 7.45629 120.835C10.1088 120.474 12.7025 119.814 15.1808 118.912C19.7385 117.264 23.8508 114.838 27.8958 112.399C33.5123 108.988 39.0191 105.379 43.804 101.084C44.5769 100.4 45.3405 99.7057 46.0397 98.9602C44.3634 97.7014 43.117 96.06 41.3763 94.8633C39.962 96.4476 38.0876 97.6285 36.2699 98.8255C34.6731 99.901 33.0497 100.982 31.2128 101.725C30.4155 102.035 29.5186 102.295 28.644 102.119C27.9737 101.978 27.591 101.388 27.4682 100.832C27.2505 99.8326 27.4611 98.8108 27.6958 97.8289C28.042 96.4455 28.5507 95.1079 29.1085 93.7829L29.0864 93.7758L29.0527 93.766L37.8698 71.7047L37.9102 71.7173Z" fill="#ED1D24"></path><path d="M92.819 85.3351H100.904C113.783 85.3351 115.663 76.1781 115.663 70.6501C115.663 66.9374 114.346 56.6234 99.3995 56.6234H92.819V85.3351ZM72.1376 41.5252H106.074C128.446 41.5252 136.344 56.046 136.344 70.8975C136.344 88.9658 125.439 100.434 102.031 100.434H72.1376V41.5252Z" fill="#ED1D24"></path><path d="M177.121 73.1539C177.121 69.1933 173.737 65.9758 168.943 65.9758C163.397 65.9758 160.2 68.5338 159.355 73.1539H177.121ZM159.261 81.652C159.731 86.52 162.926 89.9854 168.755 89.9854C171.764 89.9854 175.053 88.9948 176.557 86.9327H193.948C190.188 96.1734 179.942 100.463 168.849 100.463C153.244 100.463 141.494 92.3786 141.494 78.104C141.494 65.6458 151.834 55.4971 167.251 55.4971C186.616 55.4971 194.983 64.9852 194.983 81.652H159.261Z" fill="#ED1D24"></path><path d="M279.865 73.1539C279.865 69.1933 276.481 65.9758 271.686 65.9758C266.14 65.9758 262.944 68.5338 262.098 73.1539H279.865ZM262.004 81.652C262.474 86.52 265.67 89.9854 271.499 89.9854C274.507 89.9854 277.797 88.9948 279.3 86.9327H296.692C292.932 96.1734 282.686 100.463 271.593 100.463C255.987 100.463 244.237 92.3786 244.237 78.104C244.237 65.6458 254.577 55.4971 269.995 55.4971C289.36 55.4971 297.726 64.9852 297.726 81.652H262.004Z" fill="#ED1D24"></path><path d="M226.966 57.3453H236.93V67.4108H226.966V82.3448C226.966 86.3049 227.999 88.0376 232.7 88.0376C234.109 88.0376 235.519 87.9555 236.93 87.7908V100.166C233.169 100.166 228.938 100.662 224.99 100.662C217.095 100.662 208.353 99.5895 208.353 87.8734V67.4108H200.08V57.3453H208.353V44.3092H226.966V57.3453Z" fill="#ED1D24"></path><path d="M340.647 74.0629C340.458 72.3291 339.801 70.9265 338.578 70.0191C337.45 69.1117 335.853 68.6164 333.879 68.6164C326.734 68.6164 325.7 74.0629 325.7 79.2598C325.7 84.4579 326.734 89.8217 333.879 89.8217C337.921 89.8217 340.742 86.9337 341.116 83.5505H358.885C358.039 89.3259 354.936 93.8644 350.424 96.9991C346.005 100.052 340.083 101.703 333.502 101.703C318.837 101.703 307.087 92.7912 307.087 79.2598C307.087 65.7284 318.837 56.7356 333.502 56.7356C346.287 56.7356 357.192 62.2631 358.32 74.0629H340.647Z" fill="#ED1D24"></path><path d="M391.036 57.9539H401V68.0188H391.036V82.9523C391.036 86.9141 392.069 88.6467 396.77 88.6467C398.179 88.6467 399.589 88.5641 401 88.3994V100.774C397.24 100.774 393.008 101.27 389.06 101.27C381.165 101.27 372.422 100.197 372.422 88.4809V68.0188H364.149V57.9539H372.422V44.9167H391.036V57.9539Z" fill="#ED1D24"></path></svg>